<?xml version="1.0" encoding="UTF-8"?>
<svg id="_レイヤー_2" data-name="レイヤー 2" xmlns="http://www.w3.org/2000/svg" viewBox="0 0 173.55 161.64">
  <g id="_レイヤー_1-2" data-name="レイヤー 1">
    <path d="M173.55,50.57c.12,3.93-5.41,6.42-5.82,6.6-2.85,1.24-5.68,1.02-7.82.47-.03,0-.06-.02-.09-.02-4.15-1.05-8.53-.79-12.58.6l-11.19,3.84s-.07.02-.1.04c-.95.32-1.98-.08-2.54-.92-.3-.45-.64-.89-1-1.3l-7.09-7.95c-2.24-2.51-5.46-3.96-8.83-3.96-1.11,0-2.2.16-3.25.46-3.42.98-6.9,1.76-10.43,2.2-3.79.46-9.15,2.09-16.01,2.09s-12.22-1.63-16.01-2.09c-3.53-.43-7.02-1.21-10.44-2.2-1.05-.3-2.14-.46-3.25-.46-3.37,0-6.59,1.44-8.83,3.96l-7.09,7.95c-.74.82-1.34,1.74-1.81,2.71-.62-.15-1.23-.32-1.84-.53l-11.19-3.84c-4.05-1.39-8.43-1.65-12.58-.6-.03,0-.06.02-.09.02-2.14.55-4.97.77-7.82-.47-.41-.18-5.94-2.67-5.82-6.6.11-3.62,4.94-5.99,8.15-6.6,1.94-.37,3.72-.17,5.2.23,4.78,1.3,9.65,2.22,14.59,2.51l.9.05c7.54.44,14.88-2.52,20-8.07h0c.74-.81,1.91-1.09,2.93-.69.46.18.93.35,1.41.5,3.26,1.05,6.32,1.27,8.32,1.27.43,0,.86-.01,1.27-.03.49-.02,1.02-.05,1.53-.07h0c14.99-.49,30-.49,44.99,0h0c.51.02,1.03.04,1.53.07.41.02.83.03,1.27.03,2,0,5.06-.22,8.32-1.27.48-.16.95-.32,1.42-.5,1.02-.4,2.18-.12,2.93.69h0c5.12,5.55,12.46,8.51,20,8.07l.9-.05c4.94-.29,9.81-1.21,14.59-2.51,1.48-.4,3.26-.6,5.2-.23,3.21.6,8.04,2.97,8.15,6.6ZM82.63,82.21c0-.61-.47-1.12-1.08-1.17-3-.29-5.96-1.02-6.6-2.91-.07-.22-.09-.38-.11-.5-.26-1.95-1.19-5.13-3.93-10.62-.03-.07-.06-.14-.08-.21-.25-.91-.71-1.75-1.35-2.46l-6.95-7.69c-2.93-3.24-8.02-3.23-10.93.03h0c-5.31,5.95-7.06,14.27-4.59,21.85h0c1.7,5.21,4.59,9.96,8.44,13.86h0c3.19,3.22,4.66,7.77,3.96,12.25l-.59,3.78c-.82,5.25-.81,10.59,0,15.83l.83,5.27c.31,1.99,2.59,2.99,4.27,1.87l3.88-2.59c2.04-1.36,3.26-3.65,3.26-6.1v-16.07c0-.32.13-.62.35-.84l1.91-1.87c.74-.73,1.99-.21,2.01.83l.19,13.11s0,.06,0,.09l-1.02,15.14c-.57,8.41.69,16.84,3.68,24.72l.08.21c.51,1.34,1.32,2.46,2.38,3.33l.05.04c.77.63,1.93.08,1.93-.92v-78.24ZM121.95,56.67h0c-2.91-3.26-8-3.27-10.93-.03l-6.95,7.69c-.64.71-1.1,1.56-1.35,2.46-.02.07-.05.14-.08.21-2.74,5.49-3.67,8.67-3.93,10.62-.02.12-.04.28-.11.5-.64,1.89-3.6,2.63-6.6,2.91-.61.06-1.08.56-1.08,1.17v78.24c0,1,1.16,1.55,1.93.91h0c1.1-.91,1.95-2.09,2.45-3.42h0c2.94-7.74,4.2-16.01,3.69-24.27l-.97-15.74s0-.06,0-.09l.19-13.11c.02-1.04,1.27-1.55,2.01-.83l1.91,1.87c.23.22.35.53.35.84v16.07c0,2.45,1.22,4.74,3.26,6.1l3.88,2.59c1.68,1.12,3.95.12,4.27-1.87l.83-5.27c.82-5.24.82-10.58,0-15.83l-.59-3.78c-.7-4.48.77-9.03,3.96-12.25h0c3.85-3.9,6.74-8.64,8.44-13.86h0c2.47-7.58.72-15.91-4.59-21.86ZM80.63,27.62l-9.58.31c-.41.01-.82.03-1.23.05-.18.01-.42.02-.73.02-2.02,0-6.53-.43-9.17-3.97-2.2-2.95-2.03-6.61-1.49-8.54,1.59-5.74,10.22-9.7,22.11-10.46,1.17-.07,2.08-1.03,2.08-2.2h0c0-1.61-1.35-2.89-2.97-2.82-17.94.8-31.07,6.57-33.43,15.07-.76,2.76-1.01,8,2.13,12.22,4.28,5.75,11.99,5.77,14.07,5.66.48-.02.95-.05,1.43-.06l16.03-.52c1.52-.05,2.73-1.3,2.73-2.82h0c0-1.09-.9-1.97-2-1.93ZM127.32,15.07C124.96,6.57,111.83.8,93.89,0c-1.61-.07-2.97,1.2-2.97,2.82h0c0,1.17.91,2.13,2.08,2.2,11.89.76,20.52,4.72,22.11,10.46.53,1.93.7,5.59-1.49,8.54-2.64,3.54-7.15,3.97-9.17,3.97-.3,0-.55,0-.72-.02-.41-.02-.83-.04-1.24-.05l-9.56-.31c-1.09-.04-2,.84-2,1.93h0c0,1.52,1.21,2.77,2.73,2.82l16.03.52c.48.02.95.04,1.43.06,2.08.11,9.8.09,14.08-5.66,3.14-4.22,2.9-9.46,2.13-12.22Z"/>
  </g>
</svg>